#!OML:ASF H:\GeneralSubjects\Female5\Project 1\Capture day 1\Session 1\Female5.ASF
:FULLY-SPECIFIED
:DEGREES
173
root -2.86938 16.0499 2.52298 284.207 81.6959 277.08
lowerback 12.7462 3.66814 12.9786
upperback -10.88 7.81907 -2.34126
thorax -17.3393 1.80143 -12.0559
lowerneck -18.0781 -2.4253 2.11961
upperneck 33.0123 -3.93936 1.43405
head 14.3555 -0.856222 -0.37681
rclavicle -6.32135e-014 -9.54166e-015
rhumerus -37.9195 14.3274 -83.5201
rradius 42.0276
rwrist -10.7198
rhand -25.5302 -18.6328
rfingers 7.12502
rthumb 0.999487 -48.6102
lclavicle -6.32135e-014 -9.54166e-015
lhumerus -49.0433 -5.58431 65.1965
lradius 27.2181
lwrist -5.33716
lhand -24.9724 32.7743
lfingers 7.12502
lthumb 1.53819 62.7485
rfemur 7.26725 14.6553 44.5749
rtibia -2.32216
rfoot -17.8087 -21.8914
rtoes -9.59527
lfemur -36.9238 -3.59322 -15.9097
ltibia 36.359
lfoot -31.0417 -1.83587
ltoes -37.5561
174
root -2.5292 16.0245 2.53806 284.965 80.9597 277.505
lowerback 12.8676 3.64331 13.7629
upperback -11.1545 8.0522 -2.1763
thorax -17.6206 1.77857 -12.3957
lowerneck -17.9883 -2.3497 2.18233
upperneck 33.391 -3.70152 1.08957
head 14.4946 -0.775759 -0.48381
rclavicle -5.04913e-014 -3.97569e-015
rhumerus -36.9395 14.5901 -83.3435
rradius 42.5305
rwrist -10.8864
rhand -25.825 -18.5066
rfingers 7.12502
rthumb 0.714768 -48.4851
lclavicle -5.04913e-014 -3.97569e-015
lhumerus -49.5057 -4.96745 64.1575
lradius 26.8141
lwrist -5.31879
lhand -25.0674 31.5704
lfingers 7.12502
lthumb 1.44651 61.5452
rfemur 8.78541 15.629 45.9763
rtibia -3.02387
rfoot -17.4383 -23.4264
rtoes -13.6359
lfemur -37.6679 -5.95473 -13.644
ltibia 29.7375
lfoot -31.8492 6.10743
ltoes -47.3477
175
root -2.16831 15.9823 2.54431 286.72 80.5509 278.798
lowerback 12.5461 3.59271 14.0733
upperback -11.3646 8.07731 -1.94868
thorax -17.6734 1.76357 -12.2907
lowerneck -18.1062 -2.14363 2.16661
upperneck 33.9286 -3.22152 0.672369
head 14.7589 -0.60768 -0.569059
rclavicle 3.16068e-014 3.18055e-015
rhumerus -35.9802 15.2731 -83.2433
rradius 43.0627
rwrist -10.8378
rhand -26.0395 -18.4644
rfingers 7.12502
rthumb 0.507547 -48.4435
lclavicle 3.16068e-014 3.18055e-015
lhumerus -50.0261 -3.84022 63.1451
lradius 26.2859
lwrist -5.71461
lhand -25.2061 30.8177
lfingers 7.12502
lthumb 1.31251 60.7935
rfemur 10.357 16.4063 46.958
rtibia -3.78806
rfoot -17.2525 -24.5097
rtoes -16.6782
lfemur -37.9343 -9.52424 -10.9595
ltibia 22.5185
lfoot -33.9716 -0.501238
ltoes -35.1225
176
root -1.79975 15.9307 2.53905 289.449 80.1856 281.088
lowerback 12.1509 3.52243 14.1588
upperback -11.4761 8.0277 -1.52583
thorax -17.6362 1.77754 -11.7994
lowerneck -18.487 -1.85551 1.70197
upperneck 34.5347 -2.49989 0.350765
head 15.1362 -0.386263 -0.497551
rclavicle 3.10104e-014 1.66979e-014
rhumerus -35.0003 16.5831 -83.0851
rradius 43.4854
rwrist -10.9218
rhand -26.1558 -18.2694
rfingers 7.12502
rthumb 0.395316 -48.2488
lclavicle 3.10104e-014 1.66979e-014
lhumerus -50.9815 -2.89824 62.8658
lradius 26.3049
lwrist -5.70202
lhand -25.0779 31.3653
lfingers 7.12502
lthumb 1.43629 61.3402
rfemur 11.9683 17.1795 47.7853
rtibia -4.50133
rfoot -17.9579 -24.8905
rtoes -16.8239
lfemur -38.1469 -14.2092 -7.32911
ltibia 15.5659
lfoot -37.5633 -4.02923
ltoes -28.7717
177
root -1.44132 15.8834 2.52804 292.279 79.4354 283.542
lowerback 12.1112 3.57381 14.6741
upperback -11.6757 8.30512 -1.16217
thorax -17.7755 1.85038 -11.7317
lowerneck -18.6969 -1.74457 1.31474
upperneck 35.1077 -2.07097 0.100955
head 15.4634 -0.270934 -0.457524
rclavicle 2.80286e-014 -2.3059e-014
rhumerus -34.3944 17.2934 -82.964
rradius 43.8199
rwrist -10.8403
rhand -26.3675 -17.9583
rfingers 7.12502
rthumb 0.190847 -47.9379
lclavicle 2.80286e-014 -2.3059e-014
lhumerus -51.8826 -2.80947 63.0388
lradius 26.5152
lwrist -5.59217
lhand -24.7962 31.9074
lfingers 7.12502
lthumb 1.7084 61.8803
rfemur 13.1175 17.3779 48.6205
rtibia -4.60458
rfoot -18.63 -24.3239
rtoes -16.4289
lfemur -38.8563 -18.2692 -3.19502
ltibia 10.7401
lfoot -41.1737 -3.95117
ltoes -26.9169
178
root -1.07819 15.8338 2.51458 295.057 78.7418 285.929
lowerback 12.277 3.83937 15.4895
upperback -12.0734 8.93307 -1.30992
thorax -18.0593 1.96444 -12.5338
lowerneck -18.4771 -1.88595 1.5434
upperneck 35.5186 -2.24755 -0.0876449
head 15.6018 -0.317069 -0.605027
rclavicle 2.96189e-014 2.3059e-014
rhumerus -34.4515 16.7326 -83.1573
rradius 44.1597
rwrist -10.5659
rhand -26.7071 -17.7367
rfingers 7.12502
rthumb -0.137201 -47.7164
lclavicle 2.96189e-014 2.3059e-014
lhumerus -52.2734 -4.03861 63.3044
lradius 26.4302
lwrist -5.35011
lhand -24.553 31.9467
lfingers 7.12502
lthumb 1.94327 61.9176
rfemur 13.9286 16.9743 49.0503
rtibia -4.30792
rfoot -19.2514 -22.8221
rtoes -13.7815
lfemur -39.8579 -20.7683 -0.134426
ltibia 8.07927
lfoot -44.0297 7.88945
ltoes -39.1299
179
root -0.699021 15.776 2.50132 297.928 78.3926 288.485
lowerback 12.2784 4.21664 16.0438
upperback -12.3488 9.5613 -1.69902
thorax -18.0507 2.13106 -13.4291
lowerneck -18.391 -2.10826 1.77555
upperneck 35.7967 -2.64545 -0.0709499
head 15.7091 -0.431249 -0.708967
rclavicle 2.68359e-014 1.74931e-014
rhumerus -34.6416 15.8278 -83.403
rradius 44.4553
rwrist -10.305
rhand -27.056 -17.7649
rfingers 7.12502
rthumb -0.474193 -47.7441
lclavicle 2.68359e-014 1.74931e-014
lhumerus -52.1772 -5.16761 63.4564
lradius 26.1269
lwrist -5.60015
lhand -24.2785 30.6305
lfingers 7.12502
lthumb 2.20839 60.5988
rfemur 14.8242 16.5014 49.0913
rtibia -3.85905
rfoot -18.8512 -21.9991
rtoes -14.4567
lfemur -40.7735 -22.9499 2.1385
ltibia 6.8893
lfoot -46.1133 -2.29536
ltoes -28.3437
